<?xml version="1.0" encoding="UTF-8" standalone="no"?>
<!-- Created with Inkscape (http://www.inkscape.org/) -->

<svg
   width="140"
   height="140"
   viewBox="0 0 25.091728 25.091728"
   version="1.1"
   id="svg5"
   xmlns="http://www.w3.org/2000/svg"
   xmlns:svg="http://www.w3.org/2000/svg">
  <defs
     id="defs2" />
  <g
     id="layer1">
    <path
       id="rect2401"
       style="fill:#85f3f5;stroke:#06727b;stroke-width:2.76118;stroke-linecap:round;stroke-linejoin:round;stroke-miterlimit:0;paint-order:stroke fill markers;fill-opacity:1;stroke-opacity:1"
       d="M 1.332175 4.6118699 C 1.3164028 4.5960978 1.2944649 4.5861274 1.2702939 4.5861274 L -1.6091545 4.586375 C -1.6574964 4.586375 -1.6965305 4.6254091 -1.6965305 4.673751 L -1.6965305 16.322733 L -13.345512 16.322733 C -13.393854 16.322733 -13.432888 16.361767 -13.432888 16.410109 L -13.433136 19.289557 C -13.433136 19.337899 -13.394101 19.376933 -13.34576 19.376933 L -1.6965305 19.376685 L -1.6965305 31.026162 C -1.6965305 31.074504 -1.6577439 31.113291 -1.609402 31.113291 L 1.2702939 31.113291 C 1.3186358 31.113291 1.35767 31.074256 1.35767 31.025914 L 1.35767 19.376933 L 13.006651 19.376933 C 13.054993 19.376933 13.094027 19.337899 13.094027 19.289557 L 13.094027 16.409861 C 13.094027 16.361519 13.055241 16.322733 13.006899 16.322733 L 1.3574224 16.322733 L 1.35767 4.6735035 C 1.35767 4.6493325 1.3479472 4.6276421 1.332175 4.6118699 z "
       transform="rotate(-45)" />
  </g>
</svg>
